<svg xmlns="http://www.w3.org/2000/svg" xmlns:xlink="http://www.w3.org/1999/xlink" version="1.1" width="940" height="788" viewBox="0 0 940 788" xml:space="preserve">
<desc>Created with Fabric.js 3.5.0</desc>
<defs>
</defs>
<rect x="0" y="0" width="100%" height="100%" fill="rgba(255,255,255,0)"/>
<g transform="matrix(1 0 0 1 462.2717 394)" style="filter: url(#SVGID_3);" id="733906">
<filter id="SVGID_3" y="-28.1%" height="156.2%" x="-20.62%" width="141.24%">
	<feGaussianBlur in="SourceAlpha" stdDeviation="0"/>
	<feOffset dx="5" dy="13" result="oBlur"/>
	<feFlood flood-color="rgb(72,152,156)" flood-opacity="1"/>
	<feComposite in2="oBlur" operator="in"/>
	<feMerge>
		<feMergeNode/>
		<feMergeNode in="SourceGraphic"/>
	</feMerge>
</filter>
		
<path xml:space="preserve" font-family="Modak" font-size="142" style="stroke: rgb(72,152,156); stroke-width: 5; stroke-dasharray: none; stroke-linecap: butt; stroke-dashoffset: 0; stroke-linejoin: miter; stroke-miterlimit: 4; is-custom-font: none; font-file-url: none; fill: rgb(222,201,187); fill-rule: nonzero; opacity: 1; white-space: pre;" d="M-336.07 21.80L-336.07 21.80L-336.07 39.34Q-339.26 42.11-344.56 43.98Q-349.87 45.86-357.46 45.86Q-365.05 45.86-370.53 42.46L-370.53 42.46Q-376.56 38.78-376.56 31.99L-376.56 31.99L-376.56-38.46Q-376.56-44.84-345.29-44.84L-345.29-44.84L-304.59-44.84Q-302.58-41.16-301.61-36.62Q-300.64-32.08-300.64-28.47L-300.64-28.47Q-300.64-12.59-314.58-12.59L-314.58-12.59L-338.57-12.59Q-341.20-12.59-341.20-10.38L-341.20-10.38L-341.20-9.89Q-341.20-9.47-341.06-9.34L-341.06-9.34L-310.42-9.34Q-306.88-3.30-306.88 4.25L-306.88 4.25Q-306.88 13.68-311.11 18.95L-311.11 18.95L-345.08 18.95Q-345.64 19.51-345.64 20.20L-345.64 20.20Q-345.64 21.31-343.94 21.52Q-342.24 21.73-340.09 21.73Q-337.94 21.73-336.07 21.80ZM-256.75-32.29L-256.75-32.29L-256.75 39.34Q-259.94 42.11-265.28 43.98Q-270.62 45.86-278.25 45.86Q-285.87 45.86-291.21 42.46L-291.21 42.46Q-297.24 38.78-297.24 32.06L-297.24 32.06L-297.24-39.57Q-294.05-42.34-288.71-44.21Q-283.38-46.08-275.82-46.08Q-268.26-46.08-262.71-42.76L-262.71-42.76Q-256.75-38.94-256.75-32.29ZM-251.62 31.78L-251.62 31.78L-251.62-37.69Q-251.62-41.30-245.83-43.69Q-240.04-46.08-232.21-46.08L-232.21-46.08Q-227.77-46.08-223.85-45.01Q-219.93-43.93-217.85-42.27L-217.85-42.27Q-215.01-38.66-212.65-34.92Q-210.30-31.18-202.04-17.45L-202.04-17.45Q-201.28-17.45-200.66-17.93Q-200.03-18.42-200.03-19.42Q-200.03-20.43-201.77-23.34L-201.77-23.34L-209.26-36.24L-209.26-40.05Q-205.72-42.96-200.66-44.56Q-195.60-46.15-190.19-46.15L-190.19-46.15Q-181.38-46.15-175.97-42.96L-175.97-42.96Q-169.67-39.15-169.67-31.04L-169.67-31.04L-169.67 34.62Q-169.67 40.59-175.35 43.29L-175.35 43.29Q-180.20 45.72-188.32 45.72L-188.32 45.72Q-192.82 45.72-197.09 44.75Q-201.35 43.78-203.78 42.25L-203.78 42.25Q-208.70 35.94-213.55 28.11L-213.55 28.11L-220.63 16.32Q-222.64 16.60-222.64 18.47L-222.64 18.47Q-222.64 19.65-220.63 22.98L-220.63 22.98L-211.96 36.98L-211.96 40.66Q-220.00 45.86-230.09 45.86Q-240.18 45.86-245.90 42.18Q-251.62 38.51-251.62 31.78ZM-122.59 2.80L-122.59-3.23Q-122.59-10.17-123.21-12.77Q-123.83-15.37-125.50-15.37L-125.50-15.37Q-126.54-15.37-127.37-14.67L-127.37-14.67Q-127.23-13.43-126.95-11.35Q-126.68-9.27-126.68-2.47L-126.68-2.47L-126.68 2.04Q-126.68 6.75-126.88 8.90Q-127.09 11.05-127.23 12.57L-127.23 12.57Q-127.30 13.41-127.37 14.24L-127.37 14.24Q-126.54 14.93-125.50 14.93L-125.50 14.93Q-123.83 14.93-123.21 12.33Q-122.59 9.73-122.59 2.80L-122.59 2.80ZM-130.91 44.68L-148.45 44.68Q-156.14 44.68-160.34 40.59Q-164.53 36.50-164.53 28.24L-164.53 28.24L-164.53-34.16Q-164.53-39.43-153.96-43.07Q-143.39-46.71-130.35-46.71L-130.35-46.71Q-107.40-46.71-94.50-35.61L-94.50-35.61Q-80.64-23.69-80.64-0.04L-80.64-0.04Q-80.64 21.24-94.05 32.96Q-107.47 44.68-130.91 44.68L-130.91 44.68ZM-38.90 19.37L-38.90 19.37Q-36.61 18.95-36.61 17.05Q-36.61 15.14-37.82 12.75Q-39.04 10.36-41.39 8.21L-41.39 8.21Q-47.56 2.66-58.10 2.66L-58.10 2.66Q-63.30 2.66-67.81 4.39L-67.81 4.39Q-72.59 1.97-75.44-3.30Q-78.28-8.57-78.28-14.67L-78.28-14.67Q-78.28-30.62-64.97-39.29L-64.97-39.29Q-53.53-46.71-36.75-46.71L-36.75-46.71Q-24.27-46.71-15.74-44.04Q-7.21-41.37-1.80-37.21L-1.80-37.21Q-0.21-32.63-0.21-27.71Q-0.21-22.79-1.53-18.77Q-2.84-14.74-5.34-12.32L-5.34-12.32Q-7.70-14.05-13.87-15.85Q-20.04-17.66-25.10-17.66Q-30.16-17.66-31.86-17.03Q-33.56-16.41-33.56-15.09L-33.56-15.09Q-33.56-14.47-33.35-13.91L-33.35-13.91Q-30.92-14.54-27.11-14.54L-27.11-14.54Q-13.59-14.54-5.06-8.16L-5.06-8.16Q4.99-0.53 4.99 14.72L4.99 14.72Q4.99 28.18-5.89 37.05L-5.89 37.05Q-17.68 46.55-37.58 46.55L-37.58 46.55Q-48.54 46.55-56.58 44.92Q-64.62 43.29-72.25 39.20L-72.25 39.20Q-77.45 31.64-77.45 23.84Q-77.45 16.04-72.11 10.91Q-66.77 5.78-58.97 5.78Q-51.17 5.78-46.21 8.97Q-41.25 12.16-38.90 19.37ZM38.55 31.78L38.55 31.78L38.55-37.69Q38.55-41.30 44.34-43.69Q50.13-46.08 57.96-46.08L57.96-46.08Q62.40-46.08 66.32-45.01Q70.24-43.93 72.32-42.27L72.32-42.27Q75.16-38.66 77.52-34.92Q79.87-31.18 88.13-17.45L88.13-17.45Q88.89-17.45 89.51-17.93Q90.14-18.42 90.14-19.42Q90.14-20.43 88.40-23.34L88.40-23.34L80.92-36.24L80.92-40.05Q84.45-42.96 89.51-44.56Q94.57-46.15 99.98-46.15L99.98-46.15Q108.79-46.15 114.20-42.96L114.20-42.96Q120.51-39.15 120.51-31.04L120.51-31.04L120.51 34.62Q120.51 40.59 114.82 43.29L114.82 43.29Q109.97 45.72 101.85 45.72L101.85 45.72Q97.35 45.72 93.08 44.75Q88.82 43.78 86.39 42.25L86.39 42.25Q81.47 35.94 76.62 28.11L76.62 28.11L69.54 16.32Q67.53 16.60 67.53 18.47L67.53 18.47Q67.53 19.65 69.54 22.98L69.54 22.98L78.21 36.98L78.21 40.66Q70.17 45.86 60.08 45.86Q49.99 45.86 44.27 42.18Q38.55 38.51 38.55 31.78ZM172.58 2.80L172.58-3.23Q172.58-10.17 171.95-12.77Q171.33-15.37 169.67-15.37L169.67-15.37Q168.62-15.37 167.79-14.67L167.79-14.67Q167.93-13.43 168.21-11.35Q168.49-9.27 168.49-2.47L168.49-2.47L168.49 2.04Q168.49 6.75 168.28 8.90Q168.07 11.05 167.93 12.57L167.93 12.57Q167.86 13.41 167.79 14.24L167.79 14.24Q168.62 14.93 169.67 14.93L169.67 14.93Q171.33 14.93 171.95 12.33Q172.58 9.73 172.58 2.80L172.58 2.80ZM169.80 46.83L169.80 46.83Q157.46 46.83 147.17 41.73Q136.87 36.63 130.56 26.13Q124.25 15.63 124.25-0.11L124.25-0.11Q124.25-22.93 137.98-35.75L137.98-35.75Q150.18-47.05 169.39-47.05L169.39-47.05Q190.26-47.05 202.43-34.12Q214.59-21.19 214.59-0.11L214.59-0.11Q214.59 23.32 201.56 35.66L201.56 35.66Q189.70 46.83 169.80 46.83ZM254.05 45.79L254.05 45.79Q247.32 45.79 242.81 44.75L242.81 44.75Q236.57 43.43 233.66 40.66L233.66 40.66Q227.14 26.86 222.50 10.43L222.50 10.43Q216.05-12.32 213.49-36.52L213.49-36.52Q216.61-41.09 222.01-43.62Q227.42-46.15 234.08-46.15L234.08-46.15Q244.06-46.15 249.78-42.34Q255.50-38.53 255.50-31.45L255.50-31.45Q255.02-26.18 254.64-15.99Q254.25-5.80 254.25 2.45L254.25 2.45Q254.25 4.74 254.71 6.02Q255.16 7.31 256.61 7.31L256.61 7.31Q257.17 7.31 258.00 7.10L258.00 7.10Q257.93 6.47 257.93 5.02L257.93 5.02L257.93 2.59Q257.93-7.46 258.62-20.60Q259.32-33.74 260.29-40.19L260.29-40.19Q266.60-44.07 275.12-44.07Q283.65-44.07 288.85-41.72L288.85-41.72Q295.09-38.80 295.44-33.19L295.44-33.19Q295.09-26.39 294.16-19.81Q293.22-13.22 291.90-4.62Q290.59 3.98 290.24 6.75L290.24 6.75Q290.79 7.03 291.70 7.03Q292.60 7.03 293.36 6.33Q294.12 5.64 294.61 3.01L294.61 3.01Q296.76-8.09 298.14-20.39Q299.53-32.70 299.95-41.85L299.95-41.85Q306.33-46.15 317.56-46.15L317.56-46.15Q326.64-46.15 332.05-41.33Q337.46-36.52 337.46-28.40L337.46-28.40Q337.46-22.99 332.33-0.04L332.33-0.04Q329.69 12.02 327.27 20.58Q324.84 29.15 323.31 32.61L323.31 32.61Q320.12 39.62 313.78 42.70Q307.44 45.79 297.59 45.79L297.59 45.79Q293.64 45.79 288.47 44.61Q283.31 43.43 280.60 41.97L280.60 41.97Q279.22 39.82 277.48 35.46Q275.75 31.09 275.33 28.87L275.33 28.87Q272.63 28.94 272.63 31.78L272.63 31.78Q272.63 34.00 274.78 39.96L274.78 39.96Q267.50 45.79 254.05 45.79ZM369.01 4.05L369.01 4.05Q365.40 2.45 362.63 2.45Q359.85 2.45 359.85 5.02L359.85 5.02L359.85 5.29Q367.76 5.85 373.24 11.64Q378.71 17.43 378.71 25.51Q378.71 33.58 372.82 39.48L372.82 39.48Q366.86 45.30 358.61 45.30Q350.35 45.30 344.50 39.44Q338.64 33.58 338.64 25.40L338.64 25.40Q338.64 19.85 341.44 15.17Q344.25 10.49 348.90 7.79L348.90 7.79Q344.74 0.58 342.24-8.78Q339.75-18.14 339.75-28.19L339.75-28.19L339.75-50.80Q342.66-52.88 347.30-54.20Q351.95-55.51 356.73-55.51L356.73-55.51Q367.13-55.51 371.74-50.28Q376.36-45.04 376.36-32.63L376.36-32.63L376.36-28.19Q376.36-12.18 369.01 4.05Z"/></g>
</svg>